<svg xmlns="http://www.w3.org/2000/svg" version="1.1" xmlns:xlink="http://www.w3.org/1999/xlink" xmlns:svgjs="http://svgjs.com/svgjs" width="1440" height="560" preserveAspectRatio="none" viewBox="0 0 1440 560"><g mask="url(&quot;#SvgjsMask1216&quot;)" fill="none"><circle r="46.666666666666664" cx="931.99" cy="168.58" fill="rgba(255, 183, 80, 1)"></circle><circle r="83.34616044484459" cx="808.67" cy="298" stroke="rgba(14, 83, 140, 1)" stroke-width="1" stroke-dasharray="3, 3"></circle><rect width="60" height="60" clip-path="url(&quot;#SvgjsClipPath1217&quot;)" x="144.44" y="209.1" fill="url(#SvgjsPattern1218)" transform="rotate(334.31, 174.44, 239.1)"></rect><rect width="216" height="216" clip-path="url(&quot;#SvgjsClipPath1219&quot;)" x="367.72" y="107.47" fill="url(#SvgjsPattern1220)" transform="rotate(271.27, 475.72, 215.47)"></rect><rect width="84" height="84" clip-path="url(&quot;#SvgjsClipPath1221&quot;)" x="1194.45" y="395.17" fill="url(#SvgjsPattern1222)" transform="rotate(188.58, 1236.45, 437.17)"></rect><path d="M234.7 301.53000000000003 L309.55 384.12L219.66842198919775 395.2815780108023z" stroke="rgba(14, 83, 140, 1)" stroke-width="2.19"></path><rect width="225.6" height="225.6" clip-path="url(&quot;#SvgjsClipPath1223&quot;)" x="942.32" y="-95.02" fill="url(#SvgjsPattern1224)" transform="rotate(245.86, 1055.12, 17.78)"></rect><circle r="49.55200559126041" cx="1273.69" cy="443.18" stroke="rgba(14, 83, 140, 1)" stroke-width="2.79"></circle><path d="M692.53 382.94 L727.45 425.56L744.1554978416932 370.08450215830675z" fill="rgba(14, 83, 140, 1)"></path><rect width="113.6" height="113.6" clip-path="url(&quot;#SvgjsClipPath1225&quot;)" x="1207.9" y="173.07" fill="url(#SvgjsPattern1226)" transform="rotate(248.51, 1264.7, 229.87)"></rect><path d="M376.57 419.92 L427.57 503.92L456.0233551401648 407.9666448598352z" stroke="rgba(255, 183, 80, 1)" stroke-width="1.57" stroke-dasharray="3, 3"></path><path d="M228.61 19.21 L62.03 18.23L234.37643885470396 -70.33643885470399z" stroke="rgba(255, 183, 80, 1)" stroke-width="1" stroke-dasharray="3, 2"></path></g><defs><mask id="SvgjsMask1216"><rect width="1440" height="560" fill="#ffffff"></rect></mask><pattern x="0" y="0" width="6" height="6" patternUnits="userSpaceOnUse" id="SvgjsPattern1218"><path d="M0 6L3 0L6 6" stroke="rgba(255, 183, 80, 1)" fill="none"></path></pattern><clipPath id="SvgjsClipPath1217"><circle r="15" cx="174.44" cy="239.1"></circle></clipPath><pattern x="0" y="0" width="6" height="6" patternUnits="userSpaceOnUse" id="SvgjsPattern1220"><path d="M0 6L3 0L6 6" stroke="rgba(255, 183, 80, 1)" fill="none"></path></pattern><clipPath id="SvgjsClipPath1219"><circle r="54" cx="475.72" cy="215.47"></circle></clipPath><pattern x="0" y="0" width="6" height="6" patternUnits="userSpaceOnUse" id="SvgjsPattern1222"><path d="M0 6L3 0L6 6" stroke="rgba(14, 83, 140, 1)" fill="none"></path></pattern><clipPath id="SvgjsClipPath1221"><circle r="21" cx="1236.45" cy="437.17"></circle></clipPath><pattern x="0" y="0" width="7.52" height="7.52" patternUnits="userSpaceOnUse" id="SvgjsPattern1224"><path d="M0 7.52L3.76 0L7.52 7.52" stroke="rgba(14, 83, 140, 1)" fill="none"></path></pattern><clipPath id="SvgjsClipPath1223"><circle r="56.4" cx="1055.12" cy="17.78"></circle></clipPath><pattern x="0" y="0" width="113.6" height="11.36" patternUnits="userSpaceOnUse" id="SvgjsPattern1226"><rect width="113.6" height="5.68" x="0" y="0" fill="rgba(14, 83, 140, 1)"></rect><rect width="113.6" height="5.68" x="0" y="5.68" fill="rgba(0, 0, 0, 0)"></rect></pattern><clipPath id="SvgjsClipPath1225"><circle r="28.4" cx="1264.7" cy="229.87"></circle></clipPath></defs></svg>